STARTFONT 2.1
COMMENT
COMMENT Converted from OpenType font "CircularStd-Book.otf" by "otf2bdf 3.0".
COMMENT
FONT -FreeType-Circular Std Book-Medium-R-Normal--12-90-100-100-P-63-ISO10646-1
SIZE 9 100 100
FONTBOUNDINGBOX 19 14 0 -3
STARTPROPERTIES 19
FOUNDRY "FreeType"
FAMILY_NAME "Circular Std Book"
WEIGHT_NAME "Medium"
SLANT "R"
SETWIDTH_NAME "Normal"
ADD_STYLE_NAME ""
PIXEL_SIZE 12
POINT_SIZE 90
RESOLUTION_X 100
RESOLUTION_Y 100
SPACING "P"
AVERAGE_WIDTH 63
CHARSET_REGISTRY "ISO10646"
CHARSET_ENCODING "1"
FONT_ASCENT 12
FONT_DESCENT 3
COPYRIGHT "Generated in 2013 by FontLab Studio. Copyright info pending."
_OTF_FONTFILE "CircularStd-Book.otf"
_OTF_PSNAME "CircularStd-Book"
ENDPROPERTIES
CHARS 332
STARTCHAR 0000
ENCODING 0
SWIDTH 0 0
DWIDTH 0 0
BBX 0 0 0 0
BITMAP
ENDCHAR
STARTCHAR 000D
ENCODING 13
SWIDTH 240 0
DWIDTH 3 0
BBX 0 0 0 0
BITMAP
ENDCHAR
STARTCHAR 0020
ENCODING 32
SWIDTH 240 0
DWIDTH 3 0
BBX 0 0 0 0
BITMAP
ENDCHAR
STARTCHAR 0021
ENCODING 33
SWIDTH 320 0
DWIDTH 4 0
BBX 2 9 1 0
BITMAP
C0
C0
C0
C0
80
80
00
80
C0
ENDCHAR
STARTCHAR 0022
ENCODING 34
SWIDTH 400 0
DWIDTH 5 0
BBX 3 4 1 5
BITMAP
A0
A0
A0
A0
ENDCHAR
STARTCHAR 0023
ENCODING 35
SWIDTH 720 0
DWIDTH 9 0
BBX 8 9 1 0
BITMAP
24
24
24
FF
24
28
FE
48
48
ENDCHAR
STARTCHAR 0024
ENCODING 36
SWIDTH 560 0
DWIDTH 7 0
BBX 6 11 1 -1
BITMAP
20
30
F8
A8
E0
78
2C
AC
E8
70
20
ENDCHAR
STARTCHAR 0025
ENCODING 37
SWIDTH 800 0
DWIDTH 10 0
BBX 9 9 1 0
BITMAP
E200
9200
9400
E800
0800
1700
2580
2580
4700
ENDCHAR
STARTCHAR 0026
ENCODING 38
SWIDTH 720 0
DWIDTH 9 0
BBX 7 9 1 0
BITMAP
70
C8
C8
50
62
D2
8C
9C
72
ENDCHAR
STARTCHAR 0027
ENCODING 39
SWIDTH 240 0
DWIDTH 3 0
BBX 1 4 1 5
BITMAP
80
80
80
80
ENDCHAR
STARTCHAR 0028
ENCODING 40
SWIDTH 320 0
DWIDTH 4 0
BBX 3 12 1 -2
BITMAP
20
40
80
80
80
80
80
80
80
80
40
20
ENDCHAR
STARTCHAR 0029
ENCODING 41
SWIDTH 320 0
DWIDTH 4 0
BBX 3 12 0 -2
BITMAP
80
40
40
20
20
20
20
20
20
40
40
80
ENDCHAR
STARTCHAR 002A
ENCODING 42
SWIDTH 480 0
DWIDTH 6 0
BBX 4 5 1 4
BITMAP
40
50
F0
60
A0
ENDCHAR
STARTCHAR 002B
ENCODING 43
SWIDTH 560 0
DWIDTH 7 0
BBX 5 6 1 1
BITMAP
20
20
20
F8
20
20
ENDCHAR
STARTCHAR 002C
ENCODING 44
SWIDTH 320 0
DWIDTH 4 0
BBX 2 4 1 -2
BITMAP
C0
C0
40
80
ENDCHAR
STARTCHAR 002D
ENCODING 45
SWIDTH 400 0
DWIDTH 5 0
BBX 3 1 1 3
BITMAP
E0
ENDCHAR
STARTCHAR 002E
ENCODING 46
SWIDTH 240 0
DWIDTH 3 0
BBX 2 2 1 0
BITMAP
80
C0
ENDCHAR
STARTCHAR 002F
ENCODING 47
SWIDTH 400 0
DWIDTH 5 0
BBX 5 9 0 0
BITMAP
08
08
10
10
20
20
40
40
80
ENDCHAR
STARTCHAR 0030
ENCODING 48
SWIDTH 640 0
DWIDTH 8 0
BBX 6 9 1 0
BITMAP
78
C8
84
84
84
84
84
C8
78
ENDCHAR
STARTCHAR 0031
ENCODING 49
SWIDTH 320 0
DWIDTH 4 0
BBX 3 9 0 0
BITMAP
20
20
E0
20
20
20
20
20
20
ENDCHAR
STARTCHAR 0032
ENCODING 50
SWIDTH 560 0
DWIDTH 7 0
BBX 6 9 0 0
BITMAP
38
4C
44
04
08
30
60
40
FC
ENDCHAR
STARTCHAR 0033
ENCODING 51
SWIDTH 560 0
DWIDTH 7 0
BBX 6 9 0 0
BITMAP
7C
0C
18
10
38
04
C4
44
38
ENDCHAR
STARTCHAR 0034
ENCODING 52
SWIDTH 560 0
DWIDTH 7 0
BBX 7 9 0 0
BITMAP
0C
1C
3C
2C
4C
CC
FE
0C
0C
ENDCHAR
STARTCHAR 0035
ENCODING 53
SWIDTH 560 0
DWIDTH 7 0
BBX 6 9 0 0
BITMAP
3C
60
40
78
44
04
C4
44
38
ENDCHAR
STARTCHAR 0036
ENCODING 54
SWIDTH 560 0
DWIDTH 7 0
BBX 6 9 1 0
BITMAP
3C
40
80
F8
CC
8C
84
C8
78
ENDCHAR
STARTCHAR 0037
ENCODING 55
SWIDTH 480 0
DWIDTH 6 0
BBX 6 9 0 0
BITMAP
FC
0C
18
10
30
20
20
60
60
ENDCHAR
STARTCHAR 0038
ENCODING 56
SWIDTH 560 0
DWIDTH 7 0
BBX 5 9 1 0
BITMAP
70
88
88
88
70
88
88
88
70
ENDCHAR
STARTCHAR 0039
ENCODING 57
SWIDTH 560 0
DWIDTH 7 0
BBX 6 9 1 0
BITMAP
70
88
88
8C
8C
7C
08
18
F0
ENDCHAR
STARTCHAR 003A
ENCODING 58
SWIDTH 320 0
DWIDTH 4 0
BBX 2 6 1 0
BITMAP
C0
C0
00
00
C0
C0
ENDCHAR
STARTCHAR 003B
ENCODING 59
SWIDTH 320 0
DWIDTH 4 0
BBX 2 8 1 -2
BITMAP
C0
C0
00
00
00
C0
40
80
ENDCHAR
STARTCHAR 003C
ENCODING 60
SWIDTH 480 0
DWIDTH 6 0
BBX 6 7 0 0
BITMAP
04
18
70
C0
60
18
04
ENDCHAR
STARTCHAR 003D
ENCODING 61
SWIDTH 560 0
DWIDTH 7 0
BBX 6 3 1 2
BITMAP
FC
00
FC
ENDCHAR
STARTCHAR 003E
ENCODING 62
SWIDTH 480 0
DWIDTH 6 0
BBX 6 7 0 0
BITMAP
80
60
18
0C
18
60
80
ENDCHAR
STARTCHAR 003F
ENCODING 63
SWIDTH 480 0
DWIDTH 6 0
BBX 6 9 0 0
BITMAP
78
4C
C4
0C
18
30
00
00
30
ENDCHAR
STARTCHAR 0040
ENCODING 64
SWIDTH 800 0
DWIDTH 10 0
BBX 9 10 1 -1
BITMAP
3E00
4100
9A80
A680
A480
A580
BF00
C000
6300
1C00
ENDCHAR
STARTCHAR 0041
ENCODING 65
SWIDTH 720 0
DWIDTH 9 0
BBX 8 9 0 0
BITMAP
18
1C
14
24
22
7E
43
41
C1
ENDCHAR
STARTCHAR 0042
ENCODING 66
SWIDTH 640 0
DWIDTH 8 0
BBX 6 9 1 0
BITMAP
F8
8C
8C
88
F8
8C
84
8C
F8
ENDCHAR
STARTCHAR 0043
ENCODING 67
SWIDTH 720 0
DWIDTH 9 0
BBX 8 9 1 0
BITMAP
3C
42
83
80
80
80
83
42
3C
ENDCHAR
STARTCHAR 0044
ENCODING 68
SWIDTH 720 0
DWIDTH 9 0
BBX 7 9 1 0
BITMAP
F8
84
82
82
82
82
82
84
F8
ENDCHAR
STARTCHAR 0045
ENCODING 69
SWIDTH 560 0
DWIDTH 7 0
BBX 6 9 1 0
BITMAP
FC
80
80
80
F8
80
80
80
FC
ENDCHAR
STARTCHAR 0046
ENCODING 70
SWIDTH 560 0
DWIDTH 7 0
BBX 6 9 1 0
BITMAP
FC
80
80
80
F8
80
80
80
80
ENDCHAR
STARTCHAR 0047
ENCODING 71
SWIDTH 800 0
DWIDTH 10 0
BBX 8 9 1 0
BITMAP
3C
46
83
80
80
8F
81
C3
3D
ENDCHAR
STARTCHAR 0048
ENCODING 72
SWIDTH 720 0
DWIDTH 9 0
BBX 7 9 1 0
BITMAP
82
82
82
82
FE
82
82
82
82
ENDCHAR
STARTCHAR 0049
ENCODING 73
SWIDTH 320 0
DWIDTH 4 0
BBX 1 9 1 0
BITMAP
80
80
80
80
80
80
80
80
80
ENDCHAR
STARTCHAR 004A
ENCODING 74
SWIDTH 560 0
DWIDTH 7 0
BBX 6 9 0 0
BITMAP
0C
0C
0C
0C
0C
0C
8C
C8
78
ENDCHAR
STARTCHAR 004B
ENCODING 75
SWIDTH 640 0
DWIDTH 8 0
BBX 7 9 1 0
BITMAP
86
8C
98
B0
F0
D8
88
84
86
ENDCHAR
STARTCHAR 004C
ENCODING 76
SWIDTH 560 0
DWIDTH 7 0
BBX 6 9 1 0
BITMAP
80
80
80
80
80
80
80
80
FC
ENDCHAR
STARTCHAR 004D
ENCODING 77
SWIDTH 960 0
DWIDTH 12 0
BBX 10 9 1 0
BITMAP
C0C0
C1C0
A1C0
A1C0
B2C0
92C0
9EC0
8CC0
8CC0
ENDCHAR
STARTCHAR 004E
ENCODING 78
SWIDTH 800 0
DWIDTH 10 0
BBX 7 9 1 0
BITMAP
C2
E2
A2
92
9A
8A
8E
86
82
ENDCHAR
STARTCHAR 004F
ENCODING 79
SWIDTH 800 0
DWIDTH 10 0
BBX 8 9 1 0
BITMAP
3C
42
81
81
81
81
81
42
3C
ENDCHAR
STARTCHAR 0050
ENCODING 80
SWIDTH 560 0
DWIDTH 7 0
BBX 6 9 1 0
BITMAP
F8
8C
84
8C
F8
80
80
80
80
ENDCHAR
STARTCHAR 0051
ENCODING 81
SWIDTH 800 0
DWIDTH 10 0
BBX 8 10 1 -1
BITMAP
3C
42
81
81
81
89
85
42
3F
01
ENDCHAR
STARTCHAR 0052
ENCODING 82
SWIDTH 640 0
DWIDTH 8 0
BBX 6 9 1 0
BITMAP
F8
8C
84
84
F8
90
98
88
8C
ENDCHAR
STARTCHAR 0053
ENCODING 83
SWIDTH 560 0
DWIDTH 7 0
BBX 7 9 0 0
BITMAP
3C
66
40
60
3C
06
C2
46
3C
ENDCHAR
STARTCHAR 0054
ENCODING 84
SWIDTH 560 0
DWIDTH 7 0
BBX 7 9 0 0
BITMAP
FE
10
10
10
10
10
10
10
10
ENDCHAR
STARTCHAR 0055
ENCODING 85
SWIDTH 640 0
DWIDTH 8 0
BBX 6 9 1 0
BITMAP
84
84
84
84
84
84
84
CC
78
ENDCHAR
STARTCHAR 0056
ENCODING 86
SWIDTH 640 0
DWIDTH 8 0
BBX 8 9 0 0
BITMAP
C1
43
42
62
24
24
1C
18
18
ENDCHAR
STARTCHAR 0057
ENCODING 87
SWIDTH 1040 0
DWIDTH 13 0
BBX 12 9 0 0
BITMAP
C610
4610
4530
4520
6920
29A0
28E0
30C0
10C0
ENDCHAR
STARTCHAR 0058
ENCODING 88
SWIDTH 640 0
DWIDTH 8 0
BBX 7 9 0 0
BITMAP
C2
66
24
38
18
38
2C
66
C2
ENDCHAR
STARTCHAR 0059
ENCODING 89
SWIDTH 640 0
DWIDTH 8 0
BBX 7 9 0 0
BITMAP
C2
46
24
38
18
10
10
10
10
ENDCHAR
STARTCHAR 005A
ENCODING 90
SWIDTH 640 0
DWIDTH 8 0
BBX 6 9 1 0
BITMAP
FC
04
08
10
30
60
40
80
FC
ENDCHAR
STARTCHAR 005B
ENCODING 91
SWIDTH 320 0
DWIDTH 4 0
BBX 3 12 1 -2
BITMAP
E0
80
80
80
80
80
80
80
80
80
80
E0
ENDCHAR
STARTCHAR 005C
ENCODING 92
SWIDTH 400 0
DWIDTH 5 0
BBX 5 9 0 0
BITMAP
80
40
40
20
20
10
10
08
08
ENDCHAR
STARTCHAR 005D
ENCODING 93
SWIDTH 320 0
DWIDTH 4 0
BBX 2 12 0 -2
BITMAP
C0
40
40
40
40
40
40
40
40
40
40
C0
ENDCHAR
STARTCHAR 005E
ENCODING 94
SWIDTH 560 0
DWIDTH 7 0
BBX 5 5 1 4
BITMAP
60
60
50
90
88
ENDCHAR
STARTCHAR 005F
ENCODING 95
SWIDTH 560 0
DWIDTH 7 0
BBX 7 1 0 -1
BITMAP
FE
ENDCHAR
STARTCHAR 0060
ENCODING 96
SWIDTH 240 0
DWIDTH 3 0
BBX 2 2 1 7
BITMAP
80
40
ENDCHAR
STARTCHAR 0061
ENCODING 97
SWIDTH 560 0
DWIDTH 7 0
BBX 5 6 1 0
BITMAP
70
98
18
E8
98
E8
ENDCHAR
STARTCHAR 0062
ENCODING 98
SWIDTH 560 0
DWIDTH 7 0
BBX 6 9 1 0
BITMAP
80
80
80
B8
CC
84
84
CC
B8
ENDCHAR
STARTCHAR 0063
ENCODING 99
SWIDTH 560 0
DWIDTH 7 0
BBX 5 6 1 0
BITMAP
70
88
80
80
88
70
ENDCHAR
STARTCHAR 0064
ENCODING 100
SWIDTH 560 0
DWIDTH 7 0
BBX 5 9 1 0
BITMAP
08
08
08
78
88
88
88
88
78
ENDCHAR
STARTCHAR 0065
ENCODING 101
SWIDTH 560 0
DWIDTH 7 0
BBX 5 6 1 0
BITMAP
70
88
F8
80
88
70
ENDCHAR
STARTCHAR 0066
ENCODING 102
SWIDTH 320 0
DWIDTH 4 0
BBX 4 9 0 0
BITMAP
30
60
60
F0
60
60
60
60
60
ENDCHAR
STARTCHAR 0067
ENCODING 103
SWIDTH 560 0
DWIDTH 7 0
BBX 5 9 1 -3
BITMAP
78
88
88
88
88
78
88
88
70
ENDCHAR
STARTCHAR 0068
ENCODING 104
SWIDTH 560 0
DWIDTH 7 0
BBX 5 9 1 0
BITMAP
80
80
80
B0
C8
88
88
88
88
ENDCHAR
STARTCHAR 0069
ENCODING 105
SWIDTH 240 0
DWIDTH 3 0
BBX 1 9 1 0
BITMAP
80
80
00
80
80
80
80
80
80
ENDCHAR
STARTCHAR 006A
ENCODING 106
SWIDTH 240 0
DWIDTH 3 0
BBX 2 12 0 -3
BITMAP
40
40
00
40
40
40
40
40
40
40
40
C0
ENDCHAR
STARTCHAR 006B
ENCODING 107
SWIDTH 560 0
DWIDTH 7 0
BBX 5 9 1 0
BITMAP
80
80
80
98
B0
E0
F0
90
88
ENDCHAR
STARTCHAR 006C
ENCODING 108
SWIDTH 240 0
DWIDTH 3 0
BBX 1 9 1 0
BITMAP
80
80
80
80
80
80
80
80
80
ENDCHAR
STARTCHAR 006D
ENCODING 109
SWIDTH 880 0
DWIDTH 11 0
BBX 9 6 1 0
BITMAP
B700
C880
8880
8880
8880
8880
ENDCHAR
STARTCHAR 006E
ENCODING 110
SWIDTH 560 0
DWIDTH 7 0
BBX 5 6 1 0
BITMAP
B0
C8
88
88
88
88
ENDCHAR
STARTCHAR 006F
ENCODING 111
SWIDTH 560 0
DWIDTH 7 0
BBX 6 6 1 0
BITMAP
70
88
8C
8C
88
70
ENDCHAR
STARTCHAR 0070
ENCODING 112
SWIDTH 560 0
DWIDTH 7 0
BBX 6 9 1 -3
BITMAP
B8
CC
84
84
CC
B8
80
80
80
ENDCHAR
STARTCHAR 0071
ENCODING 113
SWIDTH 560 0
DWIDTH 7 0
BBX 5 9 1 -3
BITMAP
78
88
88
88
88
78
08
08
08
ENDCHAR
STARTCHAR 0072
ENCODING 114
SWIDTH 400 0
DWIDTH 5 0
BBX 3 6 1 0
BITMAP
A0
C0
80
80
80
80
ENDCHAR
STARTCHAR 0073
ENCODING 115
SWIDTH 480 0
DWIDTH 6 0
BBX 5 6 0 0
BITMAP
70
48
60
18
C8
70
ENDCHAR
STARTCHAR 0074
ENCODING 116
SWIDTH 320 0
DWIDTH 4 0
BBX 4 8 0 0
BITMAP
60
60
F0
60
60
60
60
30
ENDCHAR
STARTCHAR 0075
ENCODING 117
SWIDTH 560 0
DWIDTH 7 0
BBX 5 6 1 0
BITMAP
88
88
88
88
88
78
ENDCHAR
STARTCHAR 0076
ENCODING 118
SWIDTH 480 0
DWIDTH 6 0
BBX 6 6 0 0
BITMAP
C4
4C
48
28
30
30
ENDCHAR
STARTCHAR 0077
ENCODING 119
SWIDTH 800 0
DWIDTH 10 0
BBX 10 6 0 0
BITMAP
CCC0
4C80
4C80
7380
3300
3300
ENDCHAR
STARTCHAR 0078
ENCODING 120
SWIDTH 480 0
DWIDTH 6 0
BBX 6 6 0 0
BITMAP
4C
68
30
30
68
CC
ENDCHAR
STARTCHAR 0079
ENCODING 121
SWIDTH 560 0
DWIDTH 7 0
BBX 6 9 0 -3
BITMAP
C4
44
68
28
30
10
30
20
60
ENDCHAR
STARTCHAR 007A
ENCODING 122
SWIDTH 480 0
DWIDTH 6 0
BBX 5 6 0 0
BITMAP
78
18
10
20
40
F8
ENDCHAR
STARTCHAR 007B
ENCODING 123
SWIDTH 320 0
DWIDTH 4 0
BBX 3 12 1 -2
BITMAP
20
40
40
40
40
40
80
40
40
40
40
20
ENDCHAR
STARTCHAR 007C
ENCODING 124
SWIDTH 240 0
DWIDTH 3 0
BBX 1 12 1 -2
BITMAP
80
80
80
80
80
80
80
80
80
80
80
80
ENDCHAR
STARTCHAR 007D
ENCODING 125
SWIDTH 320 0
DWIDTH 4 0
BBX 4 12 0 -2
BITMAP
C0
40
40
40
40
20
10
60
40
40
40
C0
ENDCHAR
STARTCHAR 007E
ENCODING 126
SWIDTH 560 0
DWIDTH 7 0
BBX 5 2 1 3
BITMAP
E0
38
ENDCHAR
STARTCHAR 00A0
ENCODING 160
SWIDTH 240 0
DWIDTH 3 0
BBX 0 0 0 0
BITMAP
ENDCHAR
STARTCHAR 00A1
ENCODING 161
SWIDTH 240 0
DWIDTH 3 0
BBX 1 9 1 -3
BITMAP
80
80
00
80
80
80
80
80
80
ENDCHAR
STARTCHAR 00A2
ENCODING 162
SWIDTH 560 0
DWIDTH 7 0
BBX 5 9 1 0
BITMAP
20
70
F8
A0
A0
A0
F8
70
20
ENDCHAR
STARTCHAR 00A3
ENCODING 163
SWIDTH 560 0
DWIDTH 7 0
BBX 6 9 1 0
BITMAP
78
48
C0
40
F0
40
44
C4
F8
ENDCHAR
STARTCHAR 00A4
ENCODING 164
SWIDTH 560 0
DWIDTH 7 0
BBX 5 6 1 0
BITMAP
88
F8
88
88
F8
88
ENDCHAR
STARTCHAR 00A5
ENCODING 165
SWIDTH 560 0
DWIDTH 7 0
BBX 6 9 1 0
BITMAP
8C
88
58
50
F8
20
F8
20
20
ENDCHAR
STARTCHAR 00A6
ENCODING 166
SWIDTH 240 0
DWIDTH 3 0
BBX 1 12 1 -2
BITMAP
80
80
80
80
80
00
00
80
80
80
80
80
ENDCHAR
STARTCHAR 00A7
ENCODING 167
SWIDTH 560 0
DWIDTH 7 0
BBX 5 12 1 -3
BITMAP
70
88
80
C0
70
98
C8
70
18
08
88
70
ENDCHAR
STARTCHAR 00A8
ENCODING 168
SWIDTH 400 0
DWIDTH 5 0
BBX 4 1 0 7
BITMAP
D0
ENDCHAR
STARTCHAR 00A9
ENCODING 169
SWIDTH 800 0
DWIDTH 10 0
BBX 9 9 1 0
BITMAP
3C00
4300
9D00
A480
A080
A480
9D00
4300
3C00
ENDCHAR
STARTCHAR 00AA
ENCODING 170
SWIDTH 400 0
DWIDTH 5 0
BBX 3 5 1 4
BITMAP
E0
A0
E0
A0
C0
ENDCHAR
STARTCHAR 00AB
ENCODING 171
SWIDTH 480 0
DWIDTH 6 0
BBX 5 5 0 1
BITMAP
28
58
D0
58
28
ENDCHAR
STARTCHAR 00AC
ENCODING 172
SWIDTH 560 0
DWIDTH 7 0
BBX 5 3 1 2
BITMAP
F8
08
08
ENDCHAR
STARTCHAR 00AD
ENCODING 173
SWIDTH 400 0
DWIDTH 5 0
BBX 3 1 1 3
BITMAP
E0
ENDCHAR
STARTCHAR 00AE
ENCODING 174
SWIDTH 800 0
DWIDTH 10 0
BBX 9 9 1 0
BITMAP
3C00
4300
9D00
9480
9C80
9880
9500
4200
3C00
ENDCHAR
STARTCHAR 00AF
ENCODING 175
SWIDTH 320 0
DWIDTH 4 0
BBX 4 1 0 8
BITMAP
F0
ENDCHAR
STARTCHAR 00B0
ENCODING 176
SWIDTH 400 0
DWIDTH 5 0
BBX 4 4 0 5
BITMAP
70
90
90
70
ENDCHAR
STARTCHAR 00B1
ENCODING 177
SWIDTH 560 0
DWIDTH 7 0
BBX 5 6 1 1
BITMAP
20
20
F8
20
20
F8
ENDCHAR
STARTCHAR 00B2
ENCODING 178
SWIDTH 400 0
DWIDTH 5 0
BBX 3 5 1 4
BITMAP
E0
A0
60
80
E0
ENDCHAR
STARTCHAR 00B3
ENCODING 179
SWIDTH 400 0
DWIDTH 5 0
BBX 3 5 1 4
BITMAP
E0
40
60
A0
E0
ENDCHAR
STARTCHAR 00B4
ENCODING 180
SWIDTH 240 0
DWIDTH 3 0
BBX 2 2 1 7
BITMAP
C0
80
ENDCHAR
STARTCHAR 00B5
ENCODING 181
SWIDTH 560 0
DWIDTH 7 0
BBX 5 9 1 -3
BITMAP
88
88
88
88
88
F8
80
80
80
ENDCHAR
STARTCHAR 00B6
ENCODING 182
SWIDTH 640 0
DWIDTH 8 0
BBX 8 12 0 -3
BITMAP
7F
74
F4
74
74
14
14
14
14
14
14
14
ENDCHAR
STARTCHAR 00B7
ENCODING 183
SWIDTH 240 0
DWIDTH 3 0
BBX 2 1 1 3
BITMAP
C0
ENDCHAR
STARTCHAR 00B8
ENCODING 184
SWIDTH 320 0
DWIDTH 4 0
BBX 2 3 1 -3
BITMAP
C0
40
C0
ENDCHAR
STARTCHAR 00B9
ENCODING 185
SWIDTH 320 0
DWIDTH 4 0
BBX 2 5 1 4
BITMAP
40
C0
40
40
40
ENDCHAR
STARTCHAR 00BA
ENCODING 186
SWIDTH 480 0
DWIDTH 6 0
BBX 4 5 1 4
BITMAP
60
90
90
90
60
ENDCHAR
STARTCHAR 00BB
ENCODING 187
SWIDTH 480 0
DWIDTH 6 0
BBX 5 5 1 1
BITMAP
A0
90
58
90
A0
ENDCHAR
STARTCHAR 00BC
ENCODING 188
SWIDTH 800 0
DWIDTH 10 0
BBX 8 9 1 0
BITMAP
42
C4
48
48
52
26
2A
4F
82
ENDCHAR
STARTCHAR 00BD
ENCODING 189
SWIDTH 800 0
DWIDTH 10 0
BBX 8 9 1 0
BITMAP
46
C4
48
48
57
25
23
46
87
ENDCHAR
STARTCHAR 00BE
ENCODING 190
SWIDTH 880 0
DWIDTH 11 0
BBX 9 9 1 0
BITMAP
E100
4200
6400
A400
E900
1B00
1500
2780
6100
ENDCHAR
STARTCHAR 00BF
ENCODING 191
SWIDTH 480 0
DWIDTH 6 0
BBX 6 9 0 -3
BITMAP
30
10
00
10
60
C0
84
CC
78
ENDCHAR
STARTCHAR 00C0
ENCODING 192
SWIDTH 720 0
DWIDTH 9 0
BBX 8 11 0 0
BITMAP
10
00
18
1C
14
24
22
7E
43
41
C1
ENDCHAR
STARTCHAR 00C1
ENCODING 193
SWIDTH 720 0
DWIDTH 9 0
BBX 8 11 0 0
BITMAP
0C
00
18
1C
14
24
22
7E
43
41
C1
ENDCHAR
STARTCHAR 00C2
ENCODING 194
SWIDTH 720 0
DWIDTH 9 0
BBX 8 11 0 0
BITMAP
1C
00
18
1C
14
24
22
7E
43
41
C1
ENDCHAR
STARTCHAR 00C3
ENCODING 195
SWIDTH 720 0
DWIDTH 9 0
BBX 8 11 0 0
BITMAP
14
2C
18
1C
14
24
22
7E
43
41
C1
ENDCHAR
STARTCHAR 00C4
ENCODING 196
SWIDTH 720 0
DWIDTH 9 0
BBX 8 11 0 0
BITMAP
26
00
18
1C
14
24
22
7E
43
41
C1
ENDCHAR
STARTCHAR 00C5
ENCODING 197
SWIDTH 720 0
DWIDTH 9 0
BBX 8 11 0 0
BITMAP
18
14
18
1C
14
24
22
7E
43
41
C1
ENDCHAR
STARTCHAR 00C6
ENCODING 198
SWIDTH 1040 0
DWIDTH 13 0
BBX 12 9 0 0
BITMAP
03F0
0500
0D00
0900
19F0
3100
3F00
6100
C1F0
ENDCHAR
STARTCHAR 00C7
ENCODING 199
SWIDTH 720 0
DWIDTH 9 0
BBX 8 12 1 -3
BITMAP
3C
42
83
80
80
80
83
46
3C
18
08
18
ENDCHAR
STARTCHAR 00C8
ENCODING 200
SWIDTH 560 0
DWIDTH 7 0
BBX 6 11 1 0
BITMAP
20
00
FC
80
80
80
F8
80
80
80
FC
ENDCHAR
STARTCHAR 00C9
ENCODING 201
SWIDTH 560 0
DWIDTH 7 0
BBX 6 11 1 0
BITMAP
10
00
FC
80
80
80
F8
80
80
80
FC
ENDCHAR
STARTCHAR 00CA
ENCODING 202
SWIDTH 560 0
DWIDTH 7 0
BBX 6 11 1 0
BITMAP
70
00
FC
80
80
80
F8
80
80
80
FC
ENDCHAR
STARTCHAR 00CB
ENCODING 203
SWIDTH 560 0
DWIDTH 7 0
BBX 6 11 1 0
BITMAP
48
00
FC
80
80
80
F8
80
80
80
FC
ENDCHAR
STARTCHAR 00CC
ENCODING 204
SWIDTH 320 0
DWIDTH 4 0
BBX 2 11 0 0
BITMAP
C0
00
40
40
40
40
40
40
40
40
40
ENDCHAR
STARTCHAR 00CD
ENCODING 205
SWIDTH 320 0
DWIDTH 4 0
BBX 2 11 1 0
BITMAP
40
00
80
80
80
80
80
80
80
80
80
ENDCHAR
STARTCHAR 00CE
ENCODING 206
SWIDTH 320 0
DWIDTH 4 0
BBX 3 11 0 0
BITMAP
E0
00
40
40
40
40
40
40
40
40
40
ENDCHAR
STARTCHAR 00CF
ENCODING 207
SWIDTH 320 0
DWIDTH 4 0
BBX 3 11 0 0
BITMAP
A0
00
40
40
40
40
40
40
40
40
40
ENDCHAR
STARTCHAR 00D0
ENCODING 208
SWIDTH 720 0
DWIDTH 9 0
BBX 8 9 0 0
BITMAP
7C
43
41
41
F1
41
41
43
7C
ENDCHAR
STARTCHAR 00D1
ENCODING 209
SWIDTH 800 0
DWIDTH 10 0
BBX 7 11 1 0
BITMAP
34
28
C2
E2
A2
92
9A
8A
8E
86
82
ENDCHAR
STARTCHAR 00D2
ENCODING 210
SWIDTH 800 0
DWIDTH 10 0
BBX 8 11 1 0
BITMAP
30
10
3C
42
81
81
81
81
81
42
3C
ENDCHAR
STARTCHAR 00D3
ENCODING 211
SWIDTH 800 0
DWIDTH 10 0
BBX 8 11 1 0
BITMAP
0C
08
3C
42
81
81
81
81
81
42
3C
ENDCHAR
STARTCHAR 00D4
ENCODING 212
SWIDTH 800 0
DWIDTH 10 0
BBX 8 11 1 0
BITMAP
18
24
3C
42
81
81
81
81
81
42
3C
ENDCHAR
STARTCHAR 00D5
ENCODING 213
SWIDTH 800 0
DWIDTH 10 0
BBX 8 11 1 0
BITMAP
34
2C
3C
42
81
81
81
81
81
42
3C
ENDCHAR
STARTCHAR 00D6
ENCODING 214
SWIDTH 800 0
DWIDTH 10 0
BBX 8 11 1 0
BITMAP
66
66
3C
42
81
81
81
81
81
42
3C
ENDCHAR
STARTCHAR 00D7
ENCODING 215
SWIDTH 560 0
DWIDTH 7 0
BBX 5 5 1 1
BITMAP
88
D0
20
D0
88
ENDCHAR
STARTCHAR 00D8
ENCODING 216
SWIDTH 800 0
DWIDTH 10 0
BBX 8 11 1 -1
BITMAP
01
3F
42
85
8D
99
91
A1
42
FC
80
ENDCHAR
STARTCHAR 00D9
ENCODING 217
SWIDTH 640 0
DWIDTH 8 0
BBX 6 11 1 0
BITMAP
20
00
84
84
84
84
84
84
84
CC
78
ENDCHAR
STARTCHAR 00DA
ENCODING 218
SWIDTH 640 0
DWIDTH 8 0
BBX 6 11 1 0
BITMAP
10
00
84
84
84
84
84
84
84
CC
78
ENDCHAR
STARTCHAR 00DB
ENCODING 219
SWIDTH 640 0
DWIDTH 8 0
BBX 6 11 1 0
BITMAP
38
00
84
84
84
84
84
84
84
CC
78
ENDCHAR
STARTCHAR 00DC
ENCODING 220
SWIDTH 640 0
DWIDTH 8 0
BBX 6 11 1 0
BITMAP
68
00
84
84
84
84
84
84
84
CC
78
ENDCHAR
STARTCHAR 00DD
ENCODING 221
SWIDTH 640 0
DWIDTH 8 0
BBX 7 11 0 0
BITMAP
08
00
C2
46
24
38
18
10
10
10
10
ENDCHAR
STARTCHAR 00DE
ENCODING 222
SWIDTH 560 0
DWIDTH 7 0
BBX 6 9 1 0
BITMAP
80
80
F8
8C
84
8C
F8
80
80
ENDCHAR
STARTCHAR 00DF
ENCODING 223
SWIDTH 560 0
DWIDTH 7 0
BBX 6 9 1 0
BITMAP
70
C8
88
98
B0
B8
8C
A4
B8
ENDCHAR
STARTCHAR 00E0
ENCODING 224
SWIDTH 560 0
DWIDTH 7 0
BBX 5 8 1 0
BITMAP
40
00
70
98
18
E8
98
E8
ENDCHAR
STARTCHAR 00E1
ENCODING 225
SWIDTH 560 0
DWIDTH 7 0
BBX 5 8 1 0
BITMAP
30
00
70
98
18
E8
98
E8
ENDCHAR
STARTCHAR 00E2
ENCODING 226
SWIDTH 560 0
DWIDTH 7 0
BBX 5 8 1 0
BITMAP
70
00
70
98
18
E8
98
E8
ENDCHAR
STARTCHAR 00E3
ENCODING 227
SWIDTH 560 0
DWIDTH 7 0
BBX 5 8 1 0
BITMAP
50
B0
70
98
18
E8
98
E8
ENDCHAR
STARTCHAR 00E4
ENCODING 228
SWIDTH 560 0
DWIDTH 7 0
BBX 5 8 1 0
BITMAP
D0
00
70
98
18
E8
98
E8
ENDCHAR
STARTCHAR 00E5
ENCODING 229
SWIDTH 560 0
DWIDTH 7 0
BBX 5 9 1 0
BITMAP
60
50
60
70
98
18
E8
98
E8
ENDCHAR
STARTCHAR 00E6
ENCODING 230
SWIDTH 880 0
DWIDTH 11 0
BBX 9 6 1 0
BITMAP
7700
8880
7F80
8800
9880
E700
ENDCHAR
STARTCHAR 00E7
ENCODING 231
SWIDTH 560 0
DWIDTH 7 0
BBX 5 9 1 -3
BITMAP
70
88
80
80
88
70
20
10
20
ENDCHAR
STARTCHAR 00E8
ENCODING 232
SWIDTH 560 0
DWIDTH 7 0
BBX 5 8 1 0
BITMAP
60
00
70
88
F8
80
88
70
ENDCHAR
STARTCHAR 00E9
ENCODING 233
SWIDTH 560 0
DWIDTH 7 0
BBX 5 8 1 0
BITMAP
30
00
70
88
F8
80
88
70
ENDCHAR
STARTCHAR 00EA
ENCODING 234
SWIDTH 560 0
DWIDTH 7 0
BBX 5 8 1 0
BITMAP
70
00
70
88
F8
80
88
70
ENDCHAR
STARTCHAR 00EB
ENCODING 235
SWIDTH 560 0
DWIDTH 7 0
BBX 5 8 1 0
BITMAP
50
00
70
88
F8
80
88
70
ENDCHAR
STARTCHAR 00EC
ENCODING 236
SWIDTH 240 0
DWIDTH 3 0
BBX 2 9 0 0
BITMAP
80
40
00
40
40
40
40
40
40
ENDCHAR
STARTCHAR 00ED
ENCODING 237
SWIDTH 240 0
DWIDTH 3 0
BBX 2 9 1 0
BITMAP
40
80
00
80
80
80
80
80
80
ENDCHAR
STARTCHAR 00EE
ENCODING 238
SWIDTH 240 0
DWIDTH 3 0
BBX 3 9 0 0
BITMAP
60
A0
00
40
40
40
40
40
40
ENDCHAR
STARTCHAR 00EF
ENCODING 239
SWIDTH 240 0
DWIDTH 3 0
BBX 3 8 0 0
BITMAP
A0
00
40
40
40
40
40
40
ENDCHAR
STARTCHAR 00F0
ENCODING 240
SWIDTH 560 0
DWIDTH 7 0
BBX 6 9 1 0
BITMAP
48
30
58
78
8C
8C
8C
88
70
ENDCHAR
STARTCHAR 00F1
ENCODING 241
SWIDTH 560 0
DWIDTH 7 0
BBX 5 8 1 0
BITMAP
68
50
B0
C8
88
88
88
88
ENDCHAR
STARTCHAR 00F2
ENCODING 242
SWIDTH 560 0
DWIDTH 7 0
BBX 6 8 1 0
BITMAP
60
00
70
88
8C
8C
88
70
ENDCHAR
STARTCHAR 00F3
ENCODING 243
SWIDTH 560 0
DWIDTH 7 0
BBX 6 8 1 0
BITMAP
30
00
70
88
8C
8C
88
70
ENDCHAR
STARTCHAR 00F4
ENCODING 244
SWIDTH 560 0
DWIDTH 7 0
BBX 6 8 1 0
BITMAP
70
00
70
88
8C
8C
88
70
ENDCHAR
STARTCHAR 00F5
ENCODING 245
SWIDTH 560 0
DWIDTH 7 0
BBX 6 8 1 0
BITMAP
68
50
70
88
8C
8C
88
70
ENDCHAR
STARTCHAR 00F6
ENCODING 246
SWIDTH 560 0
DWIDTH 7 0
BBX 6 8 1 0
BITMAP
50
00
70
88
8C
8C
88
70
ENDCHAR
STARTCHAR 00F7
ENCODING 247
SWIDTH 560 0
DWIDTH 7 0
BBX 5 6 1 1
BITMAP
20
20
00
F8
00
20
ENDCHAR
STARTCHAR 00F8
ENCODING 248
SWIDTH 560 0
DWIDTH 7 0
BBX 6 8 1 -1
BITMAP
08
78
98
BC
AC
C8
F0
80
ENDCHAR
STARTCHAR 00F9
ENCODING 249
SWIDTH 560 0
DWIDTH 7 0
BBX 5 9 1 0
BITMAP
40
20
00
88
88
88
88
88
78
ENDCHAR
STARTCHAR 00FA
ENCODING 250
SWIDTH 560 0
DWIDTH 7 0
BBX 5 9 1 0
BITMAP
10
20
00
88
88
88
88
88
78
ENDCHAR
STARTCHAR 00FB
ENCODING 251
SWIDTH 560 0
DWIDTH 7 0
BBX 5 9 1 0
BITMAP
20
50
00
88
88
88
88
88
78
ENDCHAR
STARTCHAR 00FC
ENCODING 252
SWIDTH 560 0
DWIDTH 7 0
BBX 5 8 1 0
BITMAP
50
00
88
88
88
88
88
78
ENDCHAR
STARTCHAR 00FD
ENCODING 253
SWIDTH 560 0
DWIDTH 7 0
BBX 6 12 0 -3
BITMAP
18
10
00
C4
44
68
28
30
10
30
20
60
ENDCHAR
STARTCHAR 00FE
ENCODING 254
SWIDTH 560 0
DWIDTH 7 0
BBX 6 12 1 -3
BITMAP
80
80
80
B8
CC
84
84
CC
B8
80
80
80
ENDCHAR
STARTCHAR 00FF
ENCODING 255
SWIDTH 560 0
DWIDTH 7 0
BBX 6 11 0 -3
BITMAP
68
00
C4
44
68
28
30
10
30
20
60
ENDCHAR
STARTCHAR 0131
ENCODING 305
SWIDTH 240 0
DWIDTH 3 0
BBX 1 6 1 0
BITMAP
80
80
80
80
80
80
ENDCHAR
STARTCHAR 0141
ENCODING 321
SWIDTH 560 0
DWIDTH 7 0
BBX 7 9 0 0
BITMAP
40
40
40
50
60
C0
40
40
7E
ENDCHAR
STARTCHAR 0142
ENCODING 322
SWIDTH 320 0
DWIDTH 4 0
BBX 4 9 0 0
BITMAP
40
40
40
40
70
C0
40
40
40
ENDCHAR
STARTCHAR 0152
ENCODING 338
SWIDTH 1120 0
DWIDTH 14 0
BBX 13 9 1 0
BITMAP
3DF8
4300
8100
8100
81F0
8100
8100
4300
3DF8
ENDCHAR
STARTCHAR 0153
ENCODING 339
SWIDTH 960 0
DWIDTH 12 0
BBX 11 6 0 0
BITMAP
39C0
4620
C7E0
4600
4620
39C0
ENDCHAR
STARTCHAR 0160
ENCODING 352
SWIDTH 560 0
DWIDTH 7 0
BBX 7 11 0 0
BITMAP
2C
18
3C
66
40
60
3C
06
C2
46
3C
ENDCHAR
STARTCHAR 0161
ENCODING 353
SWIDTH 480 0
DWIDTH 6 0
BBX 5 8 0 0
BITMAP
70
00
70
48
60
18
C8
70
ENDCHAR
STARTCHAR 0178
ENCODING 376
SWIDTH 640 0
DWIDTH 8 0
BBX 7 11 0 0
BITMAP
24
00
C2
46
24
38
18
10
10
10
10
ENDCHAR
STARTCHAR 017D
ENCODING 381
SWIDTH 640 0
DWIDTH 8 0
BBX 6 11 1 0
BITMAP
30
00
FC
04
08
10
30
60
40
80
FC
ENDCHAR
STARTCHAR 017E
ENCODING 382
SWIDTH 480 0
DWIDTH 6 0
BBX 5 9 0 0
BITMAP
58
30
00
78
18
10
20
40
F8
ENDCHAR
STARTCHAR 0192
ENCODING 402
SWIDTH 480 0
DWIDTH 6 0
BBX 6 11 0 -2
BITMAP
0C
10
10
78
30
20
20
20
20
60
C0
ENDCHAR
STARTCHAR 02C6
ENCODING 710
SWIDTH 400 0
DWIDTH 5 0
BBX 3 2 1 7
BITMAP
C0
A0
ENDCHAR
STARTCHAR 02C7
ENCODING 711
SWIDTH 400 0
DWIDTH 5 0
BBX 3 2 1 7
BITMAP
A0
C0
ENDCHAR
STARTCHAR 02C9
ENCODING 713
SWIDTH 320 0
DWIDTH 4 0
BBX 4 1 0 8
BITMAP
F0
ENDCHAR
STARTCHAR 02D8
ENCODING 728
SWIDTH 400 0
DWIDTH 5 0
BBX 4 2 0 7
BITMAP
90
70
ENDCHAR
STARTCHAR 02D9
ENCODING 729
SWIDTH 160 0
DWIDTH 2 0
BBX 2 1 0 7
BITMAP
C0
ENDCHAR
STARTCHAR 02DA
ENCODING 730
SWIDTH 320 0
DWIDTH 4 0
BBX 3 3 0 7
BITMAP
60
A0
60
ENDCHAR
STARTCHAR 02DB
ENCODING 731
SWIDTH 240 0
DWIDTH 3 0
BBX 2 3 0 -3
BITMAP
40
80
40
ENDCHAR
STARTCHAR 02DC
ENCODING 732
SWIDTH 400 0
DWIDTH 5 0
BBX 4 2 0 6
BITMAP
50
B0
ENDCHAR
STARTCHAR 02DD
ENCODING 733
SWIDTH 400 0
DWIDTH 5 0
BBX 3 2 1 7
BITMAP
A0
C0
ENDCHAR
STARTCHAR 0394
ENCODING 916
SWIDTH 640 0
DWIDTH 8 0
BBX 8 9 0 0
BITMAP
18
18
14
24
26
62
42
43
FF
ENDCHAR
STARTCHAR 03A9
ENCODING 937
SWIDTH 800 0
DWIDTH 10 0
BBX 8 9 1 0
BITMAP
3C
42
81
81
81
81
C3
6E
EF
ENDCHAR
STARTCHAR 03BC
ENCODING 956
SWIDTH 560 0
DWIDTH 7 0
BBX 5 9 1 -3
BITMAP
88
88
88
88
88
F8
80
80
80
ENDCHAR
STARTCHAR 03C0
ENCODING 960
SWIDTH 640 0
DWIDTH 8 0
BBX 6 6 1 0
BITMAP
FC
48
48
48
48
4C
ENDCHAR
STARTCHAR 2007
ENCODING 8199
SWIDTH 640 0
DWIDTH 8 0
BBX 0 0 0 0
BITMAP
ENDCHAR
STARTCHAR 2008
ENCODING 8200
SWIDTH 240 0
DWIDTH 3 0
BBX 0 0 0 0
BITMAP
ENDCHAR
STARTCHAR 200B
ENCODING 8203
SWIDTH 0 0
DWIDTH 0 0
BBX 0 0 0 0
BITMAP
ENDCHAR
STARTCHAR 2013
ENCODING 8211
SWIDTH 640 0
DWIDTH 8 0
BBX 6 1 1 3
BITMAP
FC
ENDCHAR
STARTCHAR 2014
ENCODING 8212
SWIDTH 1120 0
DWIDTH 14 0
BBX 12 1 1 3
BITMAP
FFF0
ENDCHAR
STARTCHAR 2018
ENCODING 8216
SWIDTH 240 0
DWIDTH 3 0
BBX 2 3 0 6
BITMAP
40
80
40
ENDCHAR
STARTCHAR 2019
ENCODING 8217
SWIDTH 240 0
DWIDTH 3 0
BBX 1 3 1 6
BITMAP
80
80
80
ENDCHAR
STARTCHAR 201A
ENCODING 8218
SWIDTH 240 0
DWIDTH 3 0
BBX 1 4 1 -2
BITMAP
80
80
80
80
ENDCHAR
STARTCHAR 201C
ENCODING 8220
SWIDTH 400 0
DWIDTH 5 0
BBX 4 3 0 6
BITMAP
50
A0
50
ENDCHAR
STARTCHAR 201D
ENCODING 8221
SWIDTH 400 0
DWIDTH 5 0
BBX 3 3 1 6
BITMAP
A0
A0
A0
ENDCHAR
STARTCHAR 201E
ENCODING 8222
SWIDTH 400 0
DWIDTH 5 0
BBX 4 3 0 -2
BITMAP
D0
50
50
ENDCHAR
STARTCHAR 2020
ENCODING 8224
SWIDTH 400 0
DWIDTH 5 0
BBX 5 7 0 2
BITMAP
20
20
F8
20
20
20
20
ENDCHAR
STARTCHAR 2021
ENCODING 8225
SWIDTH 400 0
DWIDTH 5 0
BBX 4 9 1 0
BITMAP
40
40
F0
40
40
40
F0
40
40
ENDCHAR
STARTCHAR 2022
ENCODING 8226
SWIDTH 560 0
DWIDTH 7 0
BBX 5 5 1 1
BITMAP
70
F8
F8
F8
70
ENDCHAR
STARTCHAR 2026
ENCODING 8230
SWIDTH 960 0
DWIDTH 12 0
BBX 9 2 1 0
BITMAP
CC80
CC80
ENDCHAR
STARTCHAR 2030
ENCODING 8240
SWIDTH 1040 0
DWIDTH 13 0
BBX 12 9 1 0
BITMAP
E200
9200
9400
E800
0800
17E0
25B0
25B0
47E0
ENDCHAR
STARTCHAR 2039
ENCODING 8249
SWIDTH 240 0
DWIDTH 3 0
BBX 3 5 0 1
BITMAP
20
40
C0
40
20
ENDCHAR
STARTCHAR 203A
ENCODING 8250
SWIDTH 240 0
DWIDTH 3 0
BBX 2 5 1 1
BITMAP
80
80
40
80
80
ENDCHAR
STARTCHAR 2042
ENCODING 8258
SWIDTH 800 0
DWIDTH 10 0
BBX 9 9 1 0
BITMAP
0800
3C00
1800
1400
0000
4200
E780
4300
A580
ENDCHAR
STARTCHAR 2044
ENCODING 8260
SWIDTH 560 0
DWIDTH 7 0
BBX 7 9 0 0
BITMAP
06
04
08
08
10
20
20
40
80
ENDCHAR
STARTCHAR 2051
ENCODING 8273
SWIDTH 400 0
DWIDTH 5 0
BBX 4 9 1 0
BITMAP
40
F0
40
A0
00
40
F0
40
A0
ENDCHAR
STARTCHAR 2070
ENCODING 8304
SWIDTH 400 0
DWIDTH 5 0
BBX 4 5 1 4
BITMAP
E0
A0
90
A0
60
ENDCHAR
STARTCHAR 2074
ENCODING 8308
SWIDTH 480 0
DWIDTH 6 0
BBX 4 5 1 4
BITMAP
20
60
A0
F0
20
ENDCHAR
STARTCHAR 2075
ENCODING 8309
SWIDTH 400 0
DWIDTH 5 0
BBX 3 5 1 4
BITMAP
E0
80
E0
A0
E0
ENDCHAR
STARTCHAR 2076
ENCODING 8310
SWIDTH 400 0
DWIDTH 5 0
BBX 3 5 1 4
BITMAP
60
80
E0
A0
60
ENDCHAR
STARTCHAR 2077
ENCODING 8311
SWIDTH 400 0
DWIDTH 5 0
BBX 3 5 1 4
BITMAP
E0
20
40
40
40
ENDCHAR
STARTCHAR 2078
ENCODING 8312
SWIDTH 400 0
DWIDTH 5 0
BBX 3 5 1 4
BITMAP
E0
A0
E0
A0
E0
ENDCHAR
STARTCHAR 2079
ENCODING 8313
SWIDTH 400 0
DWIDTH 5 0
BBX 3 5 1 4
BITMAP
E0
A0
E0
20
C0
ENDCHAR
STARTCHAR 2080
ENCODING 8320
SWIDTH 400 0
DWIDTH 5 0
BBX 4 5 1 -1
BITMAP
60
A0
90
A0
E0
ENDCHAR
STARTCHAR 2081
ENCODING 8321
SWIDTH 320 0
DWIDTH 4 0
BBX 2 5 1 -1
BITMAP
40
C0
40
40
40
ENDCHAR
STARTCHAR 2082
ENCODING 8322
SWIDTH 400 0
DWIDTH 5 0
BBX 3 5 1 -1
BITMAP
C0
A0
60
80
E0
ENDCHAR
STARTCHAR 2083
ENCODING 8323
SWIDTH 400 0
DWIDTH 5 0
BBX 3 5 1 -1
BITMAP
E0
60
60
A0
E0
ENDCHAR
STARTCHAR 2084
ENCODING 8324
SWIDTH 480 0
DWIDTH 6 0
BBX 4 5 1 -1
BITMAP
20
60
A0
F0
20
ENDCHAR
STARTCHAR 2085
ENCODING 8325
SWIDTH 400 0
DWIDTH 5 0
BBX 3 5 1 -1
BITMAP
E0
80
E0
20
E0
ENDCHAR
STARTCHAR 2086
ENCODING 8326
SWIDTH 400 0
DWIDTH 5 0
BBX 3 5 1 -1
BITMAP
60
80
E0
A0
E0
ENDCHAR
STARTCHAR 2087
ENCODING 8327
SWIDTH 400 0
DWIDTH 5 0
BBX 3 5 1 -1
BITMAP
E0
20
40
40
40
ENDCHAR
STARTCHAR 2088
ENCODING 8328
SWIDTH 400 0
DWIDTH 5 0
BBX 3 5 1 -1
BITMAP
60
A0
E0
A0
E0
ENDCHAR
STARTCHAR 2089
ENCODING 8329
SWIDTH 400 0
DWIDTH 5 0
BBX 3 5 1 -1
BITMAP
E0
A0
E0
20
E0
ENDCHAR
STARTCHAR 20AC
ENCODING 8364
SWIDTH 720 0
DWIDTH 9 0
BBX 7 9 1 0
BITMAP
1E
22
40
FC
40
F8
60
22
1E
ENDCHAR
STARTCHAR 2113
ENCODING 8467
SWIDTH 400 0
DWIDTH 5 0
BBX 5 9 0 0
BITMAP
30
78
58
50
70
E0
C0
60
30
ENDCHAR
STARTCHAR 2122
ENCODING 8482
SWIDTH 880 0
DWIDTH 11 0
BBX 10 5 0 4
BITMAP
F440
26C0
26C0
2540
2540
ENDCHAR
STARTCHAR 2126
ENCODING 8486
SWIDTH 800 0
DWIDTH 10 0
BBX 8 9 1 0
BITMAP
3C
42
81
81
81
81
C3
6E
EF
ENDCHAR
STARTCHAR 2160
ENCODING 8544
SWIDTH 480 0
DWIDTH 6 0
BBX 5 9 1 0
BITMAP
F8
20
20
20
20
20
20
20
F8
ENDCHAR
STARTCHAR 2161
ENCODING 8545
SWIDTH 800 0
DWIDTH 10 0
BBX 8 9 1 0
BITMAP
FF
64
64
64
64
64
64
64
FF
ENDCHAR
STARTCHAR 2162
ENCODING 8546
SWIDTH 1040 0
DWIDTH 13 0
BBX 11 9 1 0
BITMAP
FFE0
64C0
64C0
64C0
64C0
64C0
64C0
64C0
FFE0
ENDCHAR
STARTCHAR 2163
ENCODING 8547
SWIDTH 1040 0
DWIDTH 13 0
BBX 11 9 1 0
BITMAP
FFE0
6880
6880
6880
6D00
6500
6500
6700
FFE0
ENDCHAR
STARTCHAR 2164
ENCODING 8548
SWIDTH 800 0
DWIDTH 10 0
BBX 8 9 1 0
BITMAP
FF
42
66
24
24
3C
18
18
FF
ENDCHAR
STARTCHAR 2165
ENCODING 8549
SWIDTH 1040 0
DWIDTH 13 0
BBX 11 9 1 0
BITMAP
FFE0
4280
2680
2480
2480
3480
1880
1880
FFE0
ENDCHAR
STARTCHAR 2166
ENCODING 8550
SWIDTH 1280 0
DWIDTH 16 0
BBX 14 9 1 0
BITMAP
FFFC
4288
2688
2488
2488
3488
1888
1888
FFFC
ENDCHAR
STARTCHAR 2167
ENCODING 8551
SWIDTH 1520 0
DWIDTH 19 0
BBX 18 9 1 0
BITMAP
FFFFC0
429900
269900
249900
249900
3C9900
189900
189900
FFFFC0
ENDCHAR
STARTCHAR 2168
ENCODING 8552
SWIDTH 960 0
DWIDTH 12 0
BBX 11 9 1 0
BITMAP
FFC0
6880
6D00
6700
6200
6700
6500
6980
FFE0
ENDCHAR
STARTCHAR 2169
ENCODING 8553
SWIDTH 800 0
DWIDTH 10 0
BBX 8 9 1 0
BITMAP
FF
64
2C
38
18
18
2C
64
FF
ENDCHAR
STARTCHAR 216C
ENCODING 8556
SWIDTH 640 0
DWIDTH 8 0
BBX 6 9 1 0
BITMAP
F0
60
60
60
60
64
64
64
FC
ENDCHAR
STARTCHAR 216D
ENCODING 8557
SWIDTH 720 0
DWIDTH 9 0
BBX 7 9 1 0
BITMAP
3E
46
82
80
80
80
82
46
3E
ENDCHAR
STARTCHAR 216E
ENCODING 8558
SWIDTH 720 0
DWIDTH 9 0
BBX 7 9 1 0
BITMAP
FC
66
62
62
62
62
62
66
FC
ENDCHAR
STARTCHAR 216F
ENCODING 8559
SWIDTH 1040 0
DWIDTH 13 0
BBX 12 9 1 0
BITMAP
E0F0
70C0
51C0
5140
5940
4A40
4A40
4640
F4F0
ENDCHAR
STARTCHAR 2190
ENCODING 8592
SWIDTH 1040 0
DWIDTH 13 0
BBX 12 5 0 1
BITMAP
2000
6000
FFF0
6000
2000
ENDCHAR
STARTCHAR 2191
ENCODING 8593
SWIDTH 480 0
DWIDTH 6 0
BBX 4 12 1 -2
BITMAP
40
60
F0
60
60
60
60
60
60
60
60
60
ENDCHAR
STARTCHAR 2192
ENCODING 8594
SWIDTH 1040 0
DWIDTH 13 0
BBX 12 5 0 1
BITMAP
0040
0060
FFF0
0060
0040
ENDCHAR
STARTCHAR 2193
ENCODING 8595
SWIDTH 480 0
DWIDTH 6 0
BBX 5 12 0 -2
BITMAP
20
20
20
20
20
20
20
20
20
F8
70
20
ENDCHAR
STARTCHAR 2196
ENCODING 8598
SWIDTH 880 0
DWIDTH 11 0
BBX 8 9 1 0
BITMAP
E0
C0
E0
30
18
0C
06
03
01
ENDCHAR
STARTCHAR 2197
ENCODING 8599
SWIDTH 800 0
DWIDTH 10 0
BBX 8 9 0 0
BITMAP
07
03
07
0C
18
30
60
C0
80
ENDCHAR
STARTCHAR 2198
ENCODING 8600
SWIDTH 880 0
DWIDTH 11 0
BBX 9 9 1 0
BITMAP
8000
C000
6000
3000
1800
0C80
0780
0380
0380
ENDCHAR
STARTCHAR 2199
ENCODING 8601
SWIDTH 800 0
DWIDTH 10 0
BBX 8 9 1 0
BITMAP
01
03
06
0C
18
30
E0
C0
E0
ENDCHAR
STARTCHAR 21A9
ENCODING 8617
SWIDTH 800 0
DWIDTH 10 0
BBX 10 8 0 1
BITMAP
0780
00C0
0040
2040
60C0
FF80
6000
2000
ENDCHAR
STARTCHAR 21B0
ENCODING 8624
SWIDTH 800 0
DWIDTH 10 0
BBX 8 9 1 0
BITMAP
40
40
FF
41
01
01
01
01
01
ENDCHAR
STARTCHAR 21B1
ENCODING 8625
SWIDTH 720 0
DWIDTH 9 0
BBX 9 9 0 0
BITMAP
0200
0300
FF80
8300
8200
8000
8000
8000
8000
ENDCHAR
STARTCHAR 21B2
ENCODING 8626
SWIDTH 800 0
DWIDTH 10 0
BBX 8 9 0 0
BITMAP
01
01
01
01
21
61
FF
60
20
ENDCHAR
STARTCHAR 21B3
ENCODING 8627
SWIDTH 880 0
DWIDTH 11 0
BBX 9 9 1 0
BITMAP
8000
8000
8000
8000
8000
8200
FF80
0300
0400
ENDCHAR
STARTCHAR 21B4
ENCODING 8628
SWIDTH 800 0
DWIDTH 10 0
BBX 9 9 1 0
BITMAP
FE00
0200
0200
0200
0200
0200
0F80
0700
0200
ENDCHAR
STARTCHAR 21C6
ENCODING 8646
SWIDTH 1120 0
DWIDTH 14 0
BBX 12 9 1 0
BITMAP
4000
4000
FFF0
4000
0000
0060
FFF0
0060
0040
ENDCHAR
STARTCHAR 2202
ENCODING 8706
SWIDTH 640 0
DWIDTH 8 0
BBX 6 9 1 0
BITMAP
F0
08
0C
7C
8C
84
84
88
70
ENDCHAR
STARTCHAR 2206
ENCODING 8710
SWIDTH 640 0
DWIDTH 8 0
BBX 8 9 0 0
BITMAP
18
18
14
24
26
62
42
43
FF
ENDCHAR
STARTCHAR 220F
ENCODING 8719
SWIDTH 720 0
DWIDTH 9 0
BBX 6 9 1 0
BITMAP
FC
84
84
84
84
84
84
84
84
ENDCHAR
STARTCHAR 2211
ENCODING 8721
SWIDTH 560 0
DWIDTH 7 0
BBX 6 9 1 0
BITMAP
FC
C0
60
30
18
30
60
80
FC
ENDCHAR
STARTCHAR 2212
ENCODING 8722
SWIDTH 560 0
DWIDTH 7 0
BBX 5 1 1 3
BITMAP
F8
ENDCHAR
STARTCHAR 2215
ENCODING 8725
SWIDTH 400 0
DWIDTH 5 0
BBX 5 9 0 0
BITMAP
08
10
10
30
20
20
40
40
80
ENDCHAR
STARTCHAR 2219
ENCODING 8729
SWIDTH 240 0
DWIDTH 3 0
BBX 2 1 1 3
BITMAP
C0
ENDCHAR
STARTCHAR 221A
ENCODING 8730
SWIDTH 640 0
DWIDTH 8 0
BBX 9 11 0 0
BITMAP
0380
0200
0600
0400
C400
4400
6800
2800
2800
3000
1000
ENDCHAR
STARTCHAR 221E
ENCODING 8734
SWIDTH 800 0
DWIDTH 10 0
BBX 8 4 1 2
BITMAP
E7
99
99
E7
ENDCHAR
STARTCHAR 222B
ENCODING 8747
SWIDTH 320 0
DWIDTH 4 0
BBX 4 12 0 -3
BITMAP
30
60
60
60
60
60
60
60
60
60
40
C0
ENDCHAR
STARTCHAR 2248
ENCODING 8776
SWIDTH 560 0
DWIDTH 7 0
BBX 5 5 1 1
BITMAP
E0
38
00
E0
18
ENDCHAR
STARTCHAR 2260
ENCODING 8800
SWIDTH 560 0
DWIDTH 7 0
BBX 6 6 1 1
BITMAP
08
08
FC
20
FC
C0
ENDCHAR
STARTCHAR 2264
ENCODING 8804
SWIDTH 560 0
DWIDTH 7 0
BBX 5 6 1 1
BITMAP
08
70
C0
38
00
F8
ENDCHAR
STARTCHAR 2265
ENCODING 8805
SWIDTH 560 0
DWIDTH 7 0
BBX 5 6 1 1
BITMAP
80
70
18
E0
00
F8
ENDCHAR
STARTCHAR 22C5
ENCODING 8901
SWIDTH 240 0
DWIDTH 3 0
BBX 2 1 1 3
BITMAP
C0
ENDCHAR
STARTCHAR 24C5
ENCODING 9413
SWIDTH 800 0
DWIDTH 10 0
BBX 9 9 1 0
BITMAP
3C00
4300
9D00
9480
9C80
9080
9100
4200
3C00
ENDCHAR
STARTCHAR 25A0
ENCODING 9632
SWIDTH 960 0
DWIDTH 12 0
BBX 9 9 1 0
BITMAP
FF80
FF80
FF80
FF80
FF80
FF80
FF80
FF80
FF80
ENDCHAR
STARTCHAR 25A1
ENCODING 9633
SWIDTH 960 0
DWIDTH 12 0
BBX 9 9 1 0
BITMAP
FF80
8080
8080
8080
8080
8080
8080
8080
FF80
ENDCHAR
STARTCHAR 25B2
ENCODING 9650
SWIDTH 800 0
DWIDTH 10 0
BBX 10 9 0 0
BITMAP
0400
0C00
0E00
1E00
1F00
3F00
7F80
7FC0
FFC0
ENDCHAR
STARTCHAR 25B3
ENCODING 9651
SWIDTH 800 0
DWIDTH 10 0
BBX 10 9 0 0
BITMAP
0400
0C00
0A00
1200
1100
2100
6080
40C0
FFC0
ENDCHAR
STARTCHAR 25CA
ENCODING 9674
SWIDTH 560 0
DWIDTH 7 0
BBX 6 9 0 0
BITMAP
10
28
28
44
C4
44
28
28
10
ENDCHAR
STARTCHAR 25CB
ENCODING 9675
SWIDTH 800 0
DWIDTH 10 0
BBX 9 9 1 0
BITMAP
3C00
4300
8100
8080
8080
8080
8100
4300
3C00
ENDCHAR
STARTCHAR 25CF
ENCODING 9679
SWIDTH 800 0
DWIDTH 10 0
BBX 9 9 1 0
BITMAP
3C00
7F00
FF00
FF80
FF80
FF80
FF00
7F00
3C00
ENDCHAR
STARTCHAR 262E
ENCODING 9774
SWIDTH 800 0
DWIDTH 10 0
BBX 9 9 1 0
BITMAP
3C00
4B00
8900
8880
9880
AC80
CB00
4B00
3C00
ENDCHAR
STARTCHAR 2713
ENCODING 10003
SWIDTH 960 0
DWIDTH 12 0
BBX 11 9 1 0
BITMAP
0020
0040
0080
0100
0200
8400
4800
7000
2000
ENDCHAR
STARTCHAR 2715
ENCODING 10005
SWIDTH 720 0
DWIDTH 9 0
BBX 8 9 1 0
BITMAP
81
C2
64
28
10
28
44
C2
81
ENDCHAR
STARTCHAR 2780
ENCODING 10112
SWIDTH 800 0
DWIDTH 10 0
BBX 9 9 1 0
BITMAP
3C00
4300
8900
9880
8880
8880
8900
4200
3C00
ENDCHAR
STARTCHAR 2781
ENCODING 10113
SWIDTH 800 0
DWIDTH 10 0
BBX 9 9 1 0
BITMAP
3C00
4200
9900
A480
8880
9080
BD00
4300
3C00
ENDCHAR
STARTCHAR 2782
ENCODING 10114
SWIDTH 800 0
DWIDTH 10 0
BBX 9 9 1 0
BITMAP
3C00
4300
BD00
8880
8C80
A480
9900
4300
3C00
ENDCHAR
STARTCHAR 2783
ENCODING 10115
SWIDTH 800 0
DWIDTH 10 0
BBX 9 9 1 0
BITMAP
3C00
4300
8900
9880
A880
BC80
8900
4300
3C00
ENDCHAR
STARTCHAR 2784
ENCODING 10116
SWIDTH 800 0
DWIDTH 10 0
BBX 9 9 1 0
BITMAP
3C00
4300
9D00
A080
B880
8480
9900
4300
3C00
ENDCHAR
STARTCHAR 2785
ENCODING 10117
SWIDTH 800 0
DWIDTH 10 0
BBX 9 9 1 0
BITMAP
3C00
4200
9D00
A180
B880
A480
9900
4300
3C00
ENDCHAR
STARTCHAR 2786
ENCODING 10118
SWIDTH 800 0
DWIDTH 10 0
BBX 9 9 1 0
BITMAP
3C00
4300
BD00
8880
8880
9080
9100
4200
3C00
ENDCHAR
STARTCHAR 2787
ENCODING 10119
SWIDTH 800 0
DWIDTH 10 0
BBX 9 9 1 0
BITMAP
3C00
4300
9900
A480
9880
A480
9900
4300
3C00
ENDCHAR
STARTCHAR 2788
ENCODING 10120
SWIDTH 800 0
DWIDTH 10 0
BBX 9 9 1 0
BITMAP
3C00
4300
9900
A480
9C80
8580
9900
4200
3C00
ENDCHAR
STARTCHAR E000
ENCODING 57344
SWIDTH 800 0
DWIDTH 10 0
BBX 8 9 1 0
BITMAP
7F
40
40
40
40
40
F0
E0
40
ENDCHAR
STARTCHAR E001
ENCODING 57345
SWIDTH 1120 0
DWIDTH 14 0
BBX 12 9 1 0
BITMAP
0F00
3000
2040
4060
D0F0
E040
4040
0080
0F00
ENDCHAR
STARTCHAR E002
ENCODING 57346
SWIDTH 960 0
DWIDTH 12 0
BBX 10 9 1 0
BITMAP
3C00
4000
8080
81C0
83C0
8080
8100
4300
3C00
ENDCHAR
STARTCHAR FB00
ENCODING 64256
SWIDTH 640 0
DWIDTH 8 0
BBX 8 9 0 0
BITMAP
33
66
66
FF
66
66
66
66
66
ENDCHAR
STARTCHAR FB01
ENCODING 64257
SWIDTH 640 0
DWIDTH 8 0
BBX 7 9 0 0
BITMAP
36
60
60
FE
66
66
66
66
66
ENDCHAR
STARTCHAR FB02
ENCODING 64258
SWIDTH 640 0
DWIDTH 8 0
BBX 7 9 0 0
BITMAP
36
66
66
FE
66
66
66
66
66
ENDCHAR
STARTCHAR FB03
ENCODING 64259
SWIDTH 960 0
DWIDTH 12 0
BBX 11 9 0 0
BITMAP
3360
6600
6600
FFC0
6640
6640
6640
6640
6640
ENDCHAR
STARTCHAR FB04
ENCODING 64260
SWIDTH 960 0
DWIDTH 12 0
BBX 10 9 0 0
BITMAP
3340
6640
6640
FFC0
6640
6640
6640
6640
6640
ENDCHAR
STARTCHAR FEFF
ENCODING 65279
SWIDTH 0 0
DWIDTH 0 0
BBX 0 0 0 0
BITMAP
ENDCHAR
ENDFONT
